<svg xmlns="http://www.w3.org/2000/svg" width="600" height="450" viewBox="0 0 600 450" fill="none">
  <defs>
    <linearGradient id="g1" x1="0" y1="0" x2="1" y2="1">
      <stop offset="0" stop-color="#22c55e"/>
      <stop offset="1" stop-color="#0ea5e9"/>
    </linearGradient>
    <linearGradient id="g2" x1="0" y1="0" x2="1" y2="1">
      <stop offset="0" stop-color="#1a232e"/>
      <stop offset="1" stop-color="#0b0f14"/>
    </linearGradient>
  </defs>
  <rect x="20" y="20" width="560" height="410" rx="28" fill="url(#g2)" stroke="#24303d" stroke-width="2"/>
  <rect x="70" y="70" width="230" height="300" rx="18" fill="#131a22" stroke="#24303d" stroke-width="2"/>
  <rect x="90" y="90" width="190" height="150" rx="12" fill="url(#g1)" opacity="0.85"/>
  <rect x="90" y="260" width="140" height="14" rx="7" fill="#2f3e4f"/>
  <rect x="90" y="286" width="100" height="12" rx="6" fill="#24303d"/>
  <rect x="90" y="320" width="190" height="30" rx="8" fill="#22c55e"/>
  <rect x="330" y="70" width="200" height="140" rx="18" fill="#131a22" stroke="#24303d" stroke-width="2"/>
  <circle cx="430" cy="140" r="40" fill="url(#g1)" opacity="0.8"/>
  <rect x="330" y="230" width="200" height="140" rx="18" fill="#131a22" stroke="#24303d" stroke-width="2"/>
  <rect x="355" y="255" width="150" height="16" rx="8" fill="#2f3e4f"/>
  <rect x="355" y="285" width="110" height="12" rx="6" fill="#24303d"/>
  <rect x="355" y="320" width="150" height="26" rx="8" fill="#0ea5e9" opacity="0.8"/>
  <circle cx="520" cy="90" r="18" fill="#22c55e" opacity="0.6"/>
  <circle cx="60" cy="380" r="24" fill="#0ea5e9" opacity="0.4"/>
</svg>
